# xmcd
#
# Track frame offsets: 
#        150
#        13243
#        24950
#        39808
#        56282
#        69261
#        84795
#        97723
#        115496
#        131102
#        142944
#        156755
#        173637
#        190685
#        212886
#        225481
#        239015
#        252693
#        269174
#        282272
#        293245
#        305385
#        319206
#
# Disc length: 4422 seconds
#
# Revision: 4
# Processed by: cddbd v1.5.2PL0 Copyright (c) Steve Scherf et al.
# Submitted via: ExactAudioCopy v0.99pb4
#
DISCID=40114417
DTITLE=Dana Gillespie - Blues It Up
DYEAR=1990
DGENRE=Blues
TTITLE0=A Lotta What You Got
TTITLE1=My Man Stands Out
TTITLE2=Fat Sam from Birmingham
TTITLE3=Sweet Meat
TTITLE4=Ugly Papa
TTITLE5=Sweets
TTITLE6=King Size Papa
TTITLE7=One Hour Mama
TTITLE8=Three Hundred Pounds of Joy
TTITLE9=Don't You Make Me High
TTITLE10=Big Ten Inch Record
TTITLE11=Below the Belt
TTITLE12=Long Lean Baby
TTITLE13=Tongue in Cheek
TTITLE14=Meat Balls
TTITLE15=Wasn't That Good
TTITLE16=Joe's Joint
TTITLE17=Organ Grinder
TTITLE18=Come On (If You're Coming)
TTITLE19=Nosey Joe
TTITLE20=It Ain't the Meat
TTITLE21=Sixty Minute Man
TTITLE22=Snatch and Grab It
EXTD=
EXTT0=
EXTT1=
EXTT2=
EXTT3=
EXTT4=
EXTT5=
EXTT6=
EXTT7=
EXTT8=
EXTT9=
EXTT10=
EXTT11=
EXTT12=
EXTT13=
EXTT14=
EXTT15=
EXTT16=
EXTT17=
EXTT18=
EXTT19=
EXTT20=
EXTT21=
EXTT22=
PLAYORDER=
